<svg id="visual" viewBox="0 0 960 300" width="960" height="300" xmlns="http://www.w3.org/2000/svg" xmlns:xlink="http://www.w3.org/1999/xlink" version="1.1"><rect x="0" y="0" width="960" height="300" fill="#131316"></rect><path d="M0 98L22.8 96.7C45.7 95.3 91.3 92.7 137 93.7C182.7 94.7 228.3 99.3 274 104.3C319.7 109.3 365.3 114.7 411.2 112.8C457 111 503 102 548.8 94.5C594.7 87 640.3 81 686 81.2C731.7 81.3 777.3 87.7 823 91.7C868.7 95.7 914.3 97.3 937.2 98.2L960 99L960 0L937.2 0C914.3 0 868.7 0 823 0C777.3 0 731.7 0 686 0C640.3 0 594.7 0 548.8 0C503 0 457 0 411.2 0C365.3 0 319.7 0 274 0C228.3 0 182.7 0 137 0C91.3 0 45.7 0 22.8 0L0 0Z" fill="#face69"></path><path d="M0 93L22.8 94.2C45.7 95.3 91.3 97.7 137 94.3C182.7 91 228.3 82 274 76.3C319.7 70.7 365.3 68.3 411.2 66.8C457 65.3 503 64.7 548.8 63.8C594.7 63 640.3 62 686 65.7C731.7 69.3 777.3 77.7 823 80.5C868.7 83.3 914.3 80.7 937.2 79.3L960 78L960 0L937.2 0C914.3 0 868.7 0 823 0C777.3 0 731.7 0 686 0C640.3 0 594.7 0 548.8 0C503 0 457 0 411.2 0C365.3 0 319.7 0 274 0C228.3 0 182.7 0 137 0C91.3 0 45.7 0 22.8 0L0 0Z" fill="#f0a94a"></path><path d="M0 78L22.8 77.2C45.7 76.3 91.3 74.7 137 70.7C182.7 66.7 228.3 60.3 274 60.5C319.7 60.7 365.3 67.3 411.2 70.8C457 74.3 503 74.7 548.8 74.7C594.7 74.7 640.3 74.3 686 74C731.7 73.7 777.3 73.3 823 72C868.7 70.7 914.3 68.3 937.2 67.2L960 66L960 0L937.2 0C914.3 0 868.7 0 823 0C777.3 0 731.7 0 686 0C640.3 0 594.7 0 548.8 0C503 0 457 0 411.2 0C365.3 0 319.7 0 274 0C228.3 0 182.7 0 137 0C91.3 0 45.7 0 22.8 0L0 0Z" fill="#e58234"></path><path d="M0 48L22.8 45C45.7 42 91.3 36 137 32.5C182.7 29 228.3 28 274 32.7C319.7 37.3 365.3 47.7 411.2 48.7C457 49.7 503 41.3 548.8 36.3C594.7 31.3 640.3 29.7 686 30.3C731.7 31 777.3 34 823 35C868.7 36 914.3 35 937.2 34.5L960 34L960 0L937.2 0C914.3 0 868.7 0 823 0C777.3 0 731.7 0 686 0C640.3 0 594.7 0 548.8 0C503 0 457 0 411.2 0C365.3 0 319.7 0 274 0C228.3 0 182.7 0 137 0C91.3 0 45.7 0 22.8 0L0 0Z" fill="#d85928"></path><path d="M0 30L22.8 27C45.7 24 91.3 18 137 18.3C182.7 18.7 228.3 25.3 274 28.5C319.7 31.7 365.3 31.3 411.2 31C457 30.7 503 30.3 548.8 28.5C594.7 26.7 640.3 23.3 686 21.2C731.7 19 777.3 18 823 20.5C868.7 23 914.3 29 937.2 32L960 35L960 0L937.2 0C914.3 0 868.7 0 823 0C777.3 0 731.7 0 686 0C640.3 0 594.7 0 548.8 0C503 0 457 0 411.2 0C365.3 0 319.7 0 274 0C228.3 0 182.7 0 137 0C91.3 0 45.7 0 22.8 0L0 0Z" fill="#c72424"></path></svg>