<svg id="visual" viewBox="0 0 960 300" width="960" height="300" xmlns="http://www.w3.org/2000/svg" xmlns:xlink="http://www.w3.org/1999/xlink" version="1.1"><rect x="0" y="0" width="960" height="300" fill="#131316"></rect><path d="M0 92L22.8 96.7C45.7 101.3 91.3 110.7 137 112.2C182.7 113.7 228.3 107.3 274 106.3C319.7 105.3 365.3 109.7 411.2 105.7C457 101.7 503 89.3 548.8 84.8C594.7 80.3 640.3 83.7 686 89.2C731.7 94.7 777.3 102.3 823 104.7C868.7 107 914.3 104 937.2 102.5L960 101L960 0L937.2 0C914.3 0 868.7 0 823 0C777.3 0 731.7 0 686 0C640.3 0 594.7 0 548.8 0C503 0 457 0 411.2 0C365.3 0 319.7 0 274 0C228.3 0 182.7 0 137 0C91.3 0 45.7 0 22.8 0L0 0Z" fill="#0046ff"></path><path d="M0 79L22.8 76.8C45.7 74.7 91.3 70.3 137 67.3C182.7 64.3 228.3 62.7 274 66.3C319.7 70 365.3 79 411.2 83.2C457 87.3 503 86.7 548.8 84C594.7 81.3 640.3 76.7 686 77.7C731.7 78.7 777.3 85.3 823 85.3C868.7 85.3 914.3 78.7 937.2 75.3L960 72L960 0L937.2 0C914.3 0 868.7 0 823 0C777.3 0 731.7 0 686 0C640.3 0 594.7 0 548.8 0C503 0 457 0 411.2 0C365.3 0 319.7 0 274 0C228.3 0 182.7 0 137 0C91.3 0 45.7 0 22.8 0L0 0Z" fill="#003dff"></path><path d="M0 45L22.8 49.7C45.7 54.3 91.3 63.7 137 68.2C182.7 72.7 228.3 72.3 274 67.3C319.7 62.3 365.3 52.7 411.2 53C457 53.3 503 63.7 548.8 65.5C594.7 67.3 640.3 60.7 686 55.8C731.7 51 777.3 48 823 51.5C868.7 55 914.3 65 937.2 70L960 75L960 0L937.2 0C914.3 0 868.7 0 823 0C777.3 0 731.7 0 686 0C640.3 0 594.7 0 548.8 0C503 0 457 0 411.2 0C365.3 0 319.7 0 274 0C228.3 0 182.7 0 137 0C91.3 0 45.7 0 22.8 0L0 0Z" fill="#0032ff"></path><path d="M0 48L22.8 46C45.7 44 91.3 40 137 41.3C182.7 42.7 228.3 49.3 274 48.2C319.7 47 365.3 38 411.2 36.7C457 35.3 503 41.7 548.8 41.8C594.7 42 640.3 36 686 35.2C731.7 34.3 777.3 38.7 823 42.3C868.7 46 914.3 49 937.2 50.5L960 52L960 0L937.2 0C914.3 0 868.7 0 823 0C777.3 0 731.7 0 686 0C640.3 0 594.7 0 548.8 0C503 0 457 0 411.2 0C365.3 0 319.7 0 274 0C228.3 0 182.7 0 137 0C91.3 0 45.7 0 22.8 0L0 0Z" fill="#0024ff"></path><path d="M0 30L22.8 29.8C45.7 29.7 91.3 29.3 137 29.5C182.7 29.7 228.3 30.3 274 30.8C319.7 31.3 365.3 31.7 411.2 30.5C457 29.3 503 26.7 548.8 25C594.7 23.3 640.3 22.7 686 23.7C731.7 24.7 777.3 27.3 823 29C868.7 30.7 914.3 31.3 937.2 31.7L960 32L960 0L937.2 0C914.3 0 868.7 0 823 0C777.3 0 731.7 0 686 0C640.3 0 594.7 0 548.8 0C503 0 457 0 411.2 0C365.3 0 319.7 0 274 0C228.3 0 182.7 0 137 0C91.3 0 45.7 0 22.8 0L0 0Z" fill="#000fff"></path></svg>